<?xml version="1.0" encoding="UTF-8"?>
<svg xmlns="http://www.w3.org/2000/svg" xmlns:xlink="http://www.w3.org/1999/xlink" preserveAspectRatio="xMidYMid" width="256" height="48" viewBox="0 0 256 24">
					<defs>
					  <style>
					    .gnarbox-logo-footer {
					      fill: #000;
					      fill-rule: evenodd;
					    }
					  </style>
					</defs>
					<path d="M234,28.24h-4.45L223,19l-6.55,9.28H212l8.76-12.43L212,3.38h4.45L223,12.65l6.51-9.28H234l-8.76,12.43Zm-39.66.33a11.48,11.48,0,0,1-9.09-4,13.55,13.55,0,0,1-3-8.78C182.22,9.67,186,3,194.34,3s12.07,6.62,12.07,12.77a13.58,13.58,0,0,1-3,8.78A11.4,11.4,0,0,1,194.34,28.57Zm0-21.93c-4,0-8.4,2.88-8.4,9.2a10,10,0,0,0,2.09,6.3,8.34,8.34,0,0,0,12.62,0,10,10,0,0,0,2.1-6.3C202.75,9.51,198.39,6.64,194.34,6.64Zm-19,14.58c0,6.52-6.45,7-8.43,7H158.8V3.41h8.15c0.82,0,8,.19,8,6.84a5.11,5.11,0,0,1-4,5.32l-1.16.29L171,16.12A5.08,5.08,0,0,1,175.3,21.22Zm-4-10.67a3.09,3.09,0,0,0-1.88-3A6,6,0,0,0,167,7.07h-4.61V14h4.46C168.4,14,171.29,13.26,171.29,10.54Zm-4.22,7.13h-4.67v6.91h4.46c3.08,0,4.78-1.23,4.78-3.47C171.65,18.58,169.29,17.67,167.08,17.67ZM149.9,28.52h-4.69a0.91,0.91,0,0,1-.68-0.36l0,0-6-9.73h-1.07V27.9a0.7,0.7,0,0,1-.75.62h-4A0.72,0.72,0,0,1,132,27.9V13.81a0.72,0.72,0,0,1,.75-0.65h2.58c-0.47-.8-1-1.53-1.5-2.32l-1.83-3V3.75a0.72,0.72,0,0,1,.75-0.65h7.95s8.7,0,8.7,7.66a6.91,6.91,0,0,1-4.94,7l6,9.8v0A0.61,0.61,0,0,1,149.9,28.52ZM140.7,8.4h-2.26l2.94,4.72c1.15-.07,2.51-0.58,2.51-2.36C143.89,8.4,141.38,8.4,140.7,8.4ZM122.77,28.52h-4.33a0.72,0.72,0,0,1-.68-0.44v0l-1-2.51h-7.16l-0.9,2.51v0a0.75,0.75,0,0,1-.75.44h-4.26a0.62,0.62,0,0,1-.68-0.87c3.08-8,6.41-16.7,9.49-24.69a0.8,0.8,0,0,1,1.4,0l9.49,24.69A0.63,0.63,0,0,1,122.77,28.52Zm-8.66-11.08a27.85,27.85,0,0,1-.86-3.52,26.45,26.45,0,0,1-.9,3.52l-1.29,3.78h4.3ZM94.44,28.52h-4a0.89,0.89,0,0,1-.61-0.25c-3.65-5.3-6.77-9.84-10.45-15.18V27.9a0.72,0.72,0,0,1-.75.62h-4a0.72,0.72,0,0,1-.75-0.62V3.75a0.72,0.72,0,0,1,.75-0.65h4a0.89,0.89,0,0,1,.61.25c3.58,5.23,6.87,9.88,10.49,15.14V3.75a0.7,0.7,0,0,1,.75-0.65h3.94a0.7,0.7,0,0,1,.75.65V27.9A0.7,0.7,0,0,1,94.44,28.52Zm-30.95.11H60A0.73,0.73,0,0,1,59.24,28c0-.73-0.07-0.54-0.07-1.31A8.56,8.56,0,0,1,53,28.88c-6.8,0-12.14-4.79-12.14-13.07A12.68,12.68,0,0,1,53.55,2.74a13,13,0,0,1,9,3.74,0.83,0.83,0,0,1-.07,1l-2.79,2.8a0.71,0.71,0,0,1-1,0A7.21,7.21,0,0,0,53.55,8c-3.94,0-7.16,2.87-7.16,7.77,0,5.45,3.22,7.77,7.16,7.77a7.12,7.12,0,0,0,5.19-2.36V18.5H55.23a0.69,0.69,0,0,1-.79-0.62V14.14a0.73,0.73,0,0,1,.79-0.62H63.5a0.68,0.68,0,0,1,.72.62V28A0.69,0.69,0,0,1,63.5,28.63ZM15.78,32A16,16,0,0,1,4.62,4.69,15.56,15.56,0,0,1,15.77,0,15.91,15.91,0,0,1,31.55,16,15.91,15.91,0,0,1,15.78,32Zm0-30.6A14.52,14.52,0,0,0,1.38,16,14.52,14.52,0,0,0,15.78,30.6,14.52,14.52,0,0,0,30.17,16,14.52,14.52,0,0,0,15.78,1.4ZM11.55,21.14H4.88a0.3,0.3,0,0,1-.3-0.39L8.79,9.58a0.34,0.34,0,0,1,.61,0l3,8,3-8a0.34,0.34,0,0,1,.6,0l3,8,3-8a0.34,0.34,0,0,1,.61,0L27,20.75a0.31,0.31,0,0,1-.32.39H11.55ZM9.1,14.88L7.67,19h2.86ZM23.85,19l-1.43-4.13L21,19h2.86Zm-6.66,0-1.43-4.13L14.33,19h2.86Z" class="gnarbox-logo-footer"></path>
				</svg>
