<?xml version="1.0" encoding="UTF-8"?>
<svg xmlns="http://www.w3.org/2000/svg" id="Layer_1" data-name="Layer 1" viewBox="0 0 266 35.32"><defs><style>.cls-1{fill:#a4192b;}</style></defs><g id="logo"><g id="Group_2" data-name="Group 2"><path id="Path_1" data-name="Path 1" class="cls-1" d="M14.36,19.44h-.5a.25.25,0,0,1-.17,0,.34.34,0,0,1-.11-.17.29.29,0,0,1,0-.18,1,1,0,0,1,.13-.16l.49-.57.58-.66.6-.7.55-.62a.39.39,0,0,1,.1-.08.33.33,0,0,1,.14,0H48.9a.41.41,0,0,1,.16,0,.3.3,0,0,1,.14.11L51.53,19a.28.28,0,0,1,0,.15.24.24,0,0,1-.07.18.26.26,0,0,1-.13.08h-37Z" transform="translate(0 0)"/><path id="Path_2" data-name="Path 2" class="cls-1" d="M19,13.83h-.43a.23.23,0,0,1-.14,0,.18.18,0,0,1-.1-.14.22.22,0,0,1,0-.16,1.34,1.34,0,0,1,.11-.14l.43-.49.5-.56.52-.6.47-.54a.31.31,0,0,1,.09-.07l.12,0h24a.31.31,0,0,1,.13,0,.38.38,0,0,1,.13.09l2,2.31a.28.28,0,0,1,0,.13.2.2,0,0,1-.06.15.19.19,0,0,1-.12.07H19Z" transform="translate(0 0)"/><path id="Path_3" data-name="Path 3" class="cls-1" d="M23.06,9.15h-.37a.17.17,0,0,1-.12,0A.27.27,0,0,1,22.48,9a.32.32,0,0,1,0-.14l.1-.12L23,8.32l.43-.49.45-.51.4-.47.07-.06.1,0H40.79a.27.27,0,0,1,.12,0,.21.21,0,0,1,.11.08l1.73,2a.23.23,0,0,1,0,.11.2.2,0,0,1-.06.14l-.1.05H23.06Z" transform="translate(0 0)"/><path id="Path_4" data-name="Path 4" class="cls-1" d="M26.22,5.3h-.34a.23.23,0,0,1-.11,0,.19.19,0,0,1-.07-.11.17.17,0,0,1,0-.12.76.76,0,0,1,.08-.11l.33-.38.39-.44.4-.46.36-.42.07,0a.16.16,0,0,1,.09,0H37.67l.1,0a.25.25,0,0,1,.1.08L39.42,5a.19.19,0,0,1,0,.1.17.17,0,0,1-.05.12.13.13,0,0,1-.09,0H26.22Z" transform="translate(0 0)"/><path id="Path_5" data-name="Path 5" class="cls-1" d="M29.11,1.84h-.29a.1.1,0,0,1-.09,0,.17.17,0,0,1-.07-.1.16.16,0,0,1,0-.1.31.31,0,0,1,.07-.09L29,1.2l.33-.38.35-.4L30,.07l.06,0,.08,0H35a.15.15,0,0,1,.09,0,.16.16,0,0,1,.08.06l1.33,1.53a.11.11,0,0,1,0,.08.16.16,0,0,1-.12.15H29.11Z" transform="translate(0 0)"/><path id="Path_6" data-name="Path 6" class="cls-1" d="M7.91,26.25a.29.29,0,0,0,.2.05H22.56A43.59,43.59,0,0,1,43,26.3H57.16a.34.34,0,0,0,.16-.1.31.31,0,0,0,.09-.22.41.41,0,0,0,0-.19s-2.81-3.22-2.86-3.29a.46.46,0,0,0-.18-.13.65.65,0,0,0-.19,0H11l-.18.05-.12.1-.67.77-.74.86-.71.81-.61.7a1.56,1.56,0,0,0-.16.2.42.42,0,0,0,0,.22A.34.34,0,0,0,7.91,26.25Z" transform="translate(0 0)"/><g id="Group_1" data-name="Group 1"><path id="Path_7" data-name="Path 7" class="cls-1" d="M13.36,30.06H4.28a.62.62,0,0,0-.23.07,1.09,1.09,0,0,0-.17.13l-.88,1L2,32.42l-.94,1.07-.81.93a1.71,1.71,0,0,0-.21.26A.42.42,0,0,0,0,35a.45.45,0,0,0,.18.28.52.52,0,0,0,.27.07h7A20.3,20.3,0,0,1,13.36,30.06Z" transform="translate(0 0)"/><path id="Path_8" data-name="Path 8" class="cls-1" d="M65.06,34.65s-3.72-4.28-3.8-4.36a.55.55,0,0,0-.24-.18.7.7,0,0,0-.25-.05H52.21a20.39,20.39,0,0,1,5.88,5.26H64.8a.36.36,0,0,0,.21-.13.38.38,0,0,0,.12-.29A.42.42,0,0,0,65.06,34.65Z" transform="translate(0 0)"/></g></g><path id="Path_9" data-name="Path 9" d="M93.43,8.21V15.7H97.6a3.29,3.29,0,0,0,2.16-.49,3.08,3.08,0,0,0,.81-2.26h.52v6.6h-.52a6.83,6.83,0,0,0-.39-1.78,1.75,1.75,0,0,0-.82-.77,4.4,4.4,0,0,0-1.76-.28H93.43V23a6,6,0,0,0,.11,1.53.9.9,0,0,0,.4.44A2.39,2.39,0,0,0,95,25.1h3.21a8.77,8.77,0,0,0,2.34-.22A3.54,3.54,0,0,0,102,24a11.08,11.08,0,0,0,1.77-2.62h.56l-1.64,4.75H88v-.51h.67A2.69,2.69,0,0,0,90,25.3a1.24,1.24,0,0,0,.61-.68,6.61,6.61,0,0,0,.16-1.83V10.47a4,4,0,0,0-.37-2.22,2.18,2.18,0,0,0-1.67-.56H88V7.17h14.6l.21,4.16h-.54a6.51,6.51,0,0,0-.65-2.06,2.27,2.27,0,0,0-1.06-.85,6.21,6.21,0,0,0-2-.21Z" transform="translate(0 0)"/><path id="Path_10" data-name="Path 10" d="M120.06,7.17l.21,4.45h-.53a5.46,5.46,0,0,0-.42-1.68,2.83,2.83,0,0,0-1.16-1.19,4.12,4.12,0,0,0-1.89-.39H113.6V22.85A3.84,3.84,0,0,0,114,25a2.09,2.09,0,0,0,1.63.58h.66v.52h-8v-.52h.67a1.91,1.91,0,0,0,1.71-.72,4.33,4.33,0,0,0,.31-2V8.36h-2.28a6.68,6.68,0,0,0-1.89.2,2.59,2.59,0,0,0-1.24,1,4.13,4.13,0,0,0-.62,2.05h-.53l.22-4.45Z" transform="translate(0 0)"/><path id="Path_11" data-name="Path 11" d="M126.77,8.21V15.7h4.17a3.29,3.29,0,0,0,2.16-.49,3.13,3.13,0,0,0,.81-2.26h.52v6.6h-.52a6.83,6.83,0,0,0-.39-1.78,1.75,1.75,0,0,0-.82-.77,4.4,4.4,0,0,0-1.76-.28h-4.17V23a6,6,0,0,0,.11,1.53.93.93,0,0,0,.39.44,2.45,2.45,0,0,0,1.07.16h3.21a8.77,8.77,0,0,0,2.34-.22,3.54,3.54,0,0,0,1.4-.88,11.08,11.08,0,0,0,1.77-2.62h.56L136,26.13H121.37v-.51H122a2.7,2.7,0,0,0,1.28-.32,1.18,1.18,0,0,0,.6-.68,6.61,6.61,0,0,0,.17-1.83V10.47a4,4,0,0,0-.37-2.22A2.19,2.19,0,0,0,122,7.69h-.67V7.17H136l.21,4.16h-.54A7.07,7.07,0,0,0,135,9.27a2.27,2.27,0,0,0-1.06-.85,6.24,6.24,0,0,0-2-.21Z" transform="translate(0 0)"/><path id="Path_12" data-name="Path 12" d="M147.82,6.74a8.62,8.62,0,0,1,6.39,2.8,9.66,9.66,0,0,1,2.7,7,9.93,9.93,0,0,1-2.72,7.17,9.11,9.11,0,0,1-12.88.37l-.3-.3a10,10,0,0,1-2.66-7.2,9.59,9.59,0,0,1,3.08-7.36A9.08,9.08,0,0,1,147.82,6.74Zm-.27,1a5,5,0,0,0-4.08,1.89c-1.28,1.57-1.91,3.86-1.91,6.88s.66,5.47,2,7.14a4.9,4.9,0,0,0,4,1.9A5.52,5.52,0,0,0,152,23.49q1.74-2.08,1.74-6.57,0-4.86-1.92-7.26a5.18,5.18,0,0,0-4.25-1.9Z" transform="translate(0 0)"/><path id="Path_13" data-name="Path 13" d="M175.51,26.13h-5.06L164,17.27l-1.16,0h-.39l-.43,0v5.51a3.8,3.8,0,0,0,.39,2.22,2,2,0,0,0,1.59.61h.74v.52h-8.12v-.52h.71a1.89,1.89,0,0,0,1.72-.78,4.5,4.5,0,0,0,.3-2V10.53A4,4,0,0,0,159,8.31a2.07,2.07,0,0,0-1.63-.62h-.71V7.17h6.91a17.12,17.12,0,0,1,4.45.44,5.13,5.13,0,0,1,2.43,1.63,4.18,4.18,0,0,1,1,2.81,4.42,4.42,0,0,1-1.14,3,6.43,6.43,0,0,1-3.53,1.81l3.92,5.44a9.57,9.57,0,0,0,2.3,2.49,5.76,5.76,0,0,0,2.52.78Zm-13.46-9.74h.78a6.16,6.16,0,0,0,4.09-1.17,3.75,3.75,0,0,0,1.37-3,3.88,3.88,0,0,0-1.11-2.89,4,4,0,0,0-2.94-1.11,12.36,12.36,0,0,0-2.19.26Z" transform="translate(0 0)"/><path id="Path_14" data-name="Path 14" d="M189.94,6.74l.43,6.45h-.43A8.14,8.14,0,0,0,187.46,9a6.09,6.09,0,0,0-3.85-1.27,6,6,0,0,0-5.81,4,13.69,13.69,0,0,0-.88,5.22,11.22,11.22,0,0,0,.83,4.46,6.18,6.18,0,0,0,2.48,2.89,7.07,7.07,0,0,0,3.78,1,6.5,6.5,0,0,0,3.26-.79,10.75,10.75,0,0,0,3.1-3.13l.43.28a10.09,10.09,0,0,1-3.32,3.7A8.37,8.37,0,0,1,183,26.56a8.51,8.51,0,0,1-7.3-3.49A10,10,0,0,1,173.73,17,10.92,10.92,0,0,1,175,11.73a9.25,9.25,0,0,1,3.5-3.68,9.49,9.49,0,0,1,4.87-1.31,9,9,0,0,1,4.06,1,2.24,2.24,0,0,0,.84.31.89.89,0,0,0,.65-.27,2.09,2.09,0,0,0,.52-1Z" transform="translate(0 0)"/><path id="Path_15" data-name="Path 15" d="M201.12,6.74a8.64,8.64,0,0,1,6.4,2.8,9.7,9.7,0,0,1,2.7,7,10,10,0,0,1-2.73,7.17,9.11,9.11,0,0,1-12.88.37l-.29-.3a10,10,0,0,1-2.67-7.2,9.59,9.59,0,0,1,3.08-7.36A9.08,9.08,0,0,1,201.12,6.74Zm-.27,1a5,5,0,0,0-4.08,1.89c-1.28,1.57-1.91,3.86-1.91,6.88s.66,5.47,2,7.14a4.9,4.9,0,0,0,4,1.9,5.52,5.52,0,0,0,4.41-2.08Q207,21.41,207,16.92q0-4.86-1.92-7.26a5.18,5.18,0,0,0-4.25-1.9Z" transform="translate(0 0)"/><path id="Path_16" data-name="Path 16" d="M220.65,26.13l-7.32-15.95V22.85A3.92,3.92,0,0,0,213.7,25a2.08,2.08,0,0,0,1.64.58H216v.52h-6.6v-.52h.67a1.91,1.91,0,0,0,1.71-.72,4.21,4.21,0,0,0,.3-2V10.46a4.19,4.19,0,0,0-.28-1.82,1.51,1.51,0,0,0-.72-.67,3.87,3.87,0,0,0-1.68-.28V7.17h5.37L221.65,22l6.77-14.84h5.37v.52h-.66a2,2,0,0,0-1.72.73,4.17,4.17,0,0,0-.3,2V22.85A3.66,3.66,0,0,0,231.5,25a2.05,2.05,0,0,0,1.63.58h.66v.52h-8v-.52h.67a1.89,1.89,0,0,0,1.7-.72,4.21,4.21,0,0,0,.31-2V10.18l-7.31,16Z" transform="translate(0 0)"/><path id="Path_17" data-name="Path 17" d="M246.07,26.13l-7.32-15.95V22.85a3.84,3.84,0,0,0,.38,2.18,2.05,2.05,0,0,0,1.63.58h.67v.52h-6.6v-.52h.68a1.9,1.9,0,0,0,1.7-.72,4.21,4.21,0,0,0,.31-2V10.46a4.35,4.35,0,0,0-.28-1.82,1.56,1.56,0,0,0-.72-.67,3.89,3.89,0,0,0-1.69-.28V7.17h5.37L247.08,22l6.77-14.84h5.36v.52h-.65a2,2,0,0,0-1.72.73,4.18,4.18,0,0,0-.31,2V22.85a3.82,3.82,0,0,0,.39,2.18,2.06,2.06,0,0,0,1.64.58h.65v.52h-8v-.52h.67a1.9,1.9,0,0,0,1.71-.72,4.21,4.21,0,0,0,.31-2V10.18l-7.31,16Z" transform="translate(0 0)"/><g id="Group_3" data-name="Group 3"><path id="Path_18" data-name="Path 18" d="M262.76,7.21a3.32,3.32,0,0,1,1.6.42,3,3,0,0,1,1.21,1.2,3.26,3.26,0,0,1,0,3.24,3.08,3.08,0,0,1-1.2,1.2,3.26,3.26,0,0,1-3.23,0,3,3,0,0,1-1.2-1.2,3.23,3.23,0,0,1,0-3.24,3.06,3.06,0,0,1,1.22-1.2A3.37,3.37,0,0,1,262.76,7.21Zm0,.54a2.67,2.67,0,0,0-1.33.35,2.49,2.49,0,0,0-1,1,2.69,2.69,0,0,0,0,2.7,2.53,2.53,0,0,0,1,1,2.69,2.69,0,0,0,2.69,0,2.53,2.53,0,0,0,1-1,2.69,2.69,0,0,0,0-2.7,2.49,2.49,0,0,0-1-1A2.66,2.66,0,0,0,262.76,7.75Zm-1.42,4.5V8.76h1.2a3,3,0,0,1,.89.1.84.84,0,0,1,.43.34.87.87,0,0,1,.17.51,1,1,0,0,1-.28.67,1.08,1.08,0,0,1-.72.31,1.17,1.17,0,0,1,.3.19,3.9,3.9,0,0,1,.52.69l.42.68h-.69l-.31-.55a2.6,2.6,0,0,0-.59-.81.71.71,0,0,0-.45-.12h-.33v1.48Zm.56-2h.68a1,1,0,0,0,.67-.14.48.48,0,0,0,.18-.39.49.49,0,0,0-.09-.28.55.55,0,0,0-.24-.18,1.75,1.75,0,0,0-.56-.06h-.64Z" transform="translate(0 0)"/></g><path id="Path_19" data-name="Path 19" d="M73.88,26.17,66.55,10.22V22.89a3.91,3.91,0,0,0,.38,2.18,2.06,2.06,0,0,0,1.64.58h.67v.52h-6.6v-.52h.67a1.89,1.89,0,0,0,1.7-.72,4.21,4.21,0,0,0,.31-2V10.5A4.32,4.32,0,0,0,65,8.69,1.53,1.53,0,0,0,64.32,8a3.72,3.72,0,0,0-1.68-.27V7.22H68l6.88,14.83L81.65,7.22H87v.52h-.65a1.93,1.93,0,0,0-1.72.72,4.21,4.21,0,0,0-.31,2V22.89a3.74,3.74,0,0,0,.39,2.18,2.06,2.06,0,0,0,1.64.58H87v.52H79v-.52h.67a1.89,1.89,0,0,0,1.71-.72,4.33,4.33,0,0,0,.31-2V10.22l-7.31,16Z" transform="translate(0 0)"/></g></svg>