<?xml version="1.0" encoding="UTF-8"?>
<!-- Generator: Adobe Illustrator 27.7.0, SVG Export Plug-In . SVG Version: 6.00 Build 0)  -->
<svg version="1.1" id="logo" xmlns="http://www.w3.org/2000/svg" xmlns:xlink="http://www.w3.org/1999/xlink" x="0px" y="0px" viewBox="0 0 1250 305" style="enable-background:new 0 0 1250 305;" xml:space="preserve">
<style type="text/css">
	.st0{fill:#071C36;}
</style>
<path id="symbol" class="st0" d="M105,155.5c28.3-9.8,59.1,5.3,68.9,33.7c9.7,28.4-5.3,59.3-33.6,69.1s-59.1-5.3-68.9-33.7  C61.6,196.2,76.7,165.2,105,155.5 M29.6,97.4c-22.9,7.9-35.1,33-27.2,56s32.9,35.2,55.8,27.3s35.1-33,27.2-56S52.5,89.4,29.6,97.4   M151.7,99.8c-10.8,3.7-16.5,15.5-12.8,26.3s15.5,16.6,26.2,12.8c10.8-3.7,16.5-15.5,12.8-26.3S162.5,96.1,151.7,99.8 M95.6,42.4  C76.7,49,66.7,69.6,73.2,88.5s27.1,29,45.9,22.5c18.9-6.5,28.9-27.2,22.4-46.1C135.1,46,114.5,35.9,95.6,42.4"/>
<path id="wordmark" class="st0" d="M230.6,227.1l19.6-26.7c13.2,12.5,30.1,20.3,51.4,20.3c19.3,0,34.1-6.8,34.1-18.9  c0-13.5-16.9-17.9-37.2-22.6c-27.7-6.4-62.5-15.2-62.5-53c0-35.5,31.4-53,68.6-53c28.4,0,50.3,10.5,65.6,23l-19.9,26.7  c-11.8-10.1-27-16.9-44.9-16.9c-16.9,0-30.7,5.7-30.7,17.6c0,13.5,16.6,17.6,37.5,22.3c27.7,6.1,62.2,14.9,62.2,52.4  c0,35.8-31.8,55.4-72,55.4C270.8,253.4,247.2,241.6,230.6,227.1z M572.9,163.2c0,51.4-36.5,90.2-84.8,90.2  c-25.3,0-46.6-10.8-60.8-29.1v80.5h-37.8V77h37.8v25c14.1-18.2,35.4-29,60.8-29C536.4,73,572.9,111.8,572.9,163.2z M533.7,163.2  c0-30.4-22.6-53.7-53-53.7s-53.4,23.3-53.4,53.7s23,53.7,53.4,53.7C511,216.9,533.7,193.6,533.7,163.2z M590.4,163.2  c0-51.4,39.5-90.2,92.2-90.2c52.4,0,92.2,38.9,92.2,90.2s-39.9,90.2-92.2,90.2C630,253.4,590.4,214.6,590.4,163.2z M735.7,163.2  c0-30.4-22.6-53.7-53-53.7s-53.4,23.3-53.4,53.7s23,53.7,53.4,53.7S735.7,193.6,735.7,163.2z M848.6,111.5v81.4c0,16.2,9.1,24,25,24  c9.5,0,16.9-2.7,23.7-6.1v35.5c-9.5,4.7-18.9,7.1-31.4,7.1c-37.2,0-55.1-20.9-55.1-54.4v-87.5h-29.1V77h29.1V27.7h37.8V77h48.7v34.5  H848.6z M1168.6,77v172.3h-37.8v-24.7c-14.2,17.9-35.1,28.7-60.5,28.7c-48.7,0-84.8-38.9-84.8-90.2s36.2-90.2,84.8-90.2  c25.3,0,46.3,10.8,60.5,28.7V77H1168.6z M1130.7,163.2c0-30.4-22.6-53.7-53-53.7c-30.7,0-53.4,23.3-53.4,53.7s22.6,53.7,53.4,53.7  C1108.1,216.9,1130.7,193.6,1130.7,163.2z M1201.7,24c0-13.9,10.5-24,24-24c13.9,0,24.3,10.1,24.3,24c0,13.5-10.5,24-24.3,24  C1212.2,48,1201.7,37.5,1201.7,24z M1206.8,77h37.8v172.3h-37.8V77z M941.9,211.9c-10.8,3.7-16.5,15.5-12.8,26.3  s15.5,16.6,26.2,12.8c10.8-3.7,16.5-15.5,12.8-26.3S952.6,208.2,941.9,211.9"/>
</svg>